<svg width="94" height="35" viewBox="0 0 94 35" fill="none" xmlns="http://www.w3.org/2000/svg">
<g clip-path="url(#clip0_3962_6194)">
<path d="M62.6634 17.5C51.3133 20.226 49.3168 22.4358 46.8541 35C44.3915 22.4358 42.3954 20.226 31.0449 17.5C42.3954 14.774 44.3915 12.5642 46.8541 0C49.3168 12.5642 51.3133 14.774 62.6634 17.5Z" fill="#286BB6"/>
<path opacity="0.4" d="M24.4588 17.5001C15.9978 19.5322 14.5096 21.1795 12.6738 30.5455C10.838 21.1795 9.34997 19.5322 0.888672 17.5001C9.34997 15.468 10.838 13.8207 12.6738 4.45465C14.5096 13.8207 15.9978 15.468 24.4588 17.5001Z" fill="#0460C8"/>
<path opacity="0.4" d="M93.4588 17.5001C84.9978 19.5322 83.5096 21.1795 81.6738 30.5455C79.838 21.1795 78.35 19.5322 69.8887 17.5001C78.35 15.468 79.838 13.8207 81.6738 4.45465C83.5096 13.8207 84.9978 15.468 93.4588 17.5001Z" fill="#0460C8"/>
</g>
<defs>
<clipPath id="clip0_3962_6194">
<rect width="93" height="35" fill="white" transform="translate(0.5)"/>
</clipPath>
</defs>
</svg>
