<svg width="125" height="21" viewBox="0 0 125 21" fill="none" xmlns="http://www.w3.org/2000/svg">
<path fill-rule="evenodd" clip-rule="evenodd" d="M68.2879 12.9502C68.2879 14.3932 68.5147 15.4652 68.9682 16.161C69.6073 17.1402 70.4525 17.635 71.509 17.635C72.3233 17.635 73.0191 17.2897 73.5963 16.5939C74.1632 15.8981 74.457 14.8004 74.457 13.2955C74.457 11.6978 74.1735 10.5537 73.5963 9.84244C73.3352 9.50497 72.9989 9.23322 72.6141 9.04888C72.2293 8.86454 71.8068 8.77272 71.3802 8.78076C70.4937 8.78076 69.7619 9.12606 69.1743 9.81152C68.5868 10.5021 68.2931 11.5483 68.2879 12.9502ZM64.6699 20.1861L64.6957 1.03461L68.3704 1.03977L68.3601 7.89431C69.4939 6.60585 70.8339 5.96164 72.3852 5.96164C74.0756 5.96164 75.4774 6.58009 76.5752 7.817C77.6833 9.0436 78.2296 10.8062 78.2244 13.1048C78.2244 15.4858 77.6575 17.3154 76.534 18.5987C76.0352 19.2055 75.407 19.6931 74.6953 20.0257C73.9837 20.3584 73.2067 20.5276 72.4212 20.5211C71.6276 20.5211 70.8442 20.3149 70.0763 19.9181C69.2823 19.495 68.6004 18.8891 68.0869 18.1503V20.1861H64.6699ZM87.8362 13.6614C87.3724 13.816 86.6199 14.0067 85.6046 14.2232C84.5842 14.4396 83.9142 14.6509 83.605 14.8622C83.1205 15.2024 82.8834 15.6353 82.8834 16.1507C82.8834 16.666 83.0741 17.1093 83.4555 17.4855C83.65 17.6731 83.8803 17.8195 84.1327 17.916C84.3851 18.0125 84.6543 18.0572 84.9243 18.0473C85.584 18.0473 86.2128 17.8257 86.8209 17.3927C87.2398 17.0979 87.5481 16.6716 87.6971 16.1816C87.7898 15.8672 87.8362 15.2694 87.8362 14.3932V13.6614ZM82.9144 10.6877L79.5799 10.095C79.9561 8.73952 80.6055 7.73454 81.5228 7.08516C82.4454 6.43063 83.8111 6.10594 85.6252 6.10594C87.2745 6.10594 88.5062 6.30179 89.3102 6.68832C90.0173 6.98967 90.6122 7.50519 91.011 8.1623C91.3408 8.76014 91.5057 9.85789 91.5057 11.4504L91.4387 15.7384C91.4387 16.9598 91.5006 17.8617 91.6243 18.439C91.7428 19.0213 91.9696 19.6398 92.2994 20.2995H88.6299C88.5371 20.0624 88.4186 19.7016 88.2794 19.2275C88.2176 19.011 88.1712 18.8667 88.1454 18.7997C87.5607 19.3778 86.874 19.8426 86.12 20.1706C85.3985 20.4799 84.6357 20.6293 83.8214 20.6293C82.3835 20.6293 81.2548 20.2428 80.4199 19.4697C80.0157 19.097 79.6961 18.6419 79.4827 18.1351C79.2693 17.6283 79.1671 17.0817 79.183 16.532C79.183 15.7487 79.3685 15.0529 79.7448 14.4396C80.1222 13.8238 80.6724 13.3327 81.327 13.0275C82.2656 12.6228 83.2505 12.3354 84.2595 12.1719C85.9809 11.8524 87.1714 11.5535 87.8362 11.2752V10.9041C87.8362 10.1877 87.6661 9.68267 87.3157 9.37344C86.9652 9.06937 86.3055 8.91991 85.3366 8.91991C84.6821 8.91991 84.1719 9.04876 83.806 9.3116C83.3749 9.66816 83.0636 10.1485 82.9144 10.6877ZM106.158 10.4867L102.54 11.1412C102.467 10.5211 102.172 9.94829 101.71 9.52806C101.233 9.15145 100.637 8.95932 100.03 8.98691C99.1127 8.98691 98.3809 9.30129 97.8346 9.93521C97.2883 10.5691 97.0151 11.6359 97.0151 13.1202C97.0151 14.7746 97.2934 15.9445 97.85 16.6248C98.1156 16.9591 98.4558 17.2264 98.8433 17.4054C99.2309 17.5844 99.655 17.6701 100.081 17.6556C100.777 17.6556 101.349 17.4494 101.798 17.0474C102.241 16.6454 102.555 15.9548 102.736 14.9705L106.354 15.5889C105.983 17.2536 105.261 18.5111 104.194 19.3563C103.132 20.2067 101.705 20.6293 99.9167 20.6293C97.881 20.6293 96.2575 19.9902 95.0515 18.7069C93.8404 17.4237 93.2374 15.6508 93.2374 13.3831C93.2374 11.0845 93.8404 9.30128 95.0567 8.02315C96.2678 6.74501 97.9067 6.10594 99.9734 6.10594C101.664 6.10594 103.009 6.46671 104.009 7.18824C105.003 7.90977 105.72 9.01268 106.158 10.4867ZM110.982 0.952148V7.98192C112.167 6.58524 113.584 5.88433 115.228 5.88433C116.074 5.88433 116.831 6.03894 117.512 6.35848C118.122 6.61888 118.652 7.03687 119.047 7.56962C119.393 8.05923 119.625 8.60038 119.753 9.19822C119.882 9.79606 119.944 10.7186 119.944 11.9709V20.1655H116.254V12.7852C116.254 11.3216 116.182 10.3939 116.048 10.0022C115.915 9.61427 115.655 9.28222 115.311 9.05906C114.915 8.81456 114.456 8.69262 113.991 8.70861C113.383 8.70861 112.842 8.85807 112.363 9.15699C111.87 9.47287 111.499 9.9473 111.312 10.5021C111.095 11.1051 110.982 11.9916 110.982 13.1615V20.1655H107.292V0.952148H110.982Z" fill="#80848B"/>
<path fill-rule="evenodd" clip-rule="evenodd" d="M59.2325 13.3525C58.3873 13.6978 57.1195 13.9967 55.429 14.2389C54.7376 14.3143 54.0577 14.4718 53.4036 14.7079C53.0343 14.8643 52.7194 15.1262 52.4984 15.4609C52.2774 15.7955 52.1602 16.188 52.1615 16.5891C52.1615 17.2178 52.3986 17.7383 52.8727 18.1558C53.3417 18.5784 54.0375 18.7846 54.9497 18.7846C55.8516 18.7846 56.6505 18.5887 57.3565 18.1919C58.0303 17.825 58.5713 17.2552 58.9027 16.5633C59.1604 16.0324 59.284 15.2491 59.284 14.2132L59.2325 13.3525ZM59.4283 18.5887C58.713 19.2588 57.8818 19.7932 56.9751 20.1658C56.1712 20.475 55.3105 20.6296 54.3879 20.6296C52.8727 20.6296 51.7028 20.2585 50.8834 19.5113C50.4848 19.1525 50.1691 18.7112 49.9581 18.2182C49.7472 17.7251 49.6461 17.1921 49.6619 16.6561C49.6523 16.0231 49.8003 15.3977 50.0928 14.8363C50.3852 14.2748 50.8127 13.795 51.3369 13.4401C51.8368 13.0999 52.3986 12.8422 53.0222 12.667C53.486 12.5485 54.1766 12.4299 55.1043 12.3166C56.9958 12.0898 58.3873 11.8218 59.2789 11.5074L59.2995 10.889C59.2995 9.92517 59.0727 9.23972 58.6295 8.84803C58.0265 8.31719 57.1349 8.04919 55.9495 8.04919C54.8415 8.04919 54.022 8.24504 53.4963 8.63672C52.9655 9.02841 52.579 9.71902 52.3213 10.7137L50.0536 10.389C50.2598 9.39948 50.5999 8.6058 51.0792 7.99765C51.62 7.3449 52.3349 6.85883 53.1407 6.59582C54.0426 6.26598 55.0837 6.10621 56.2691 6.10621C57.4441 6.10621 58.3976 6.24537 59.1346 6.52367C59.7578 6.72731 60.3173 7.08965 60.758 7.57504C61.1229 8.04414 61.3703 8.5937 61.4796 9.17787C61.562 9.57987 61.5981 10.3066 61.5981 11.3528V14.4966C61.5981 16.687 61.6496 18.0733 61.7424 18.6557C61.8403 19.2381 62.031 19.7999 62.3093 20.3307H59.9128C59.6468 19.7843 59.4826 19.194 59.4283 18.5887ZM2.15944 13.3834C2.15944 15.0223 2.3862 16.2025 2.84489 16.9344C3.59735 18.1197 4.60749 18.7176 5.88563 18.7176C6.92669 18.7176 7.82861 18.2795 8.58621 17.4034C9.34382 16.5272 9.7252 15.213 9.7252 13.4762C9.7252 11.693 9.36444 10.3736 8.6326 9.52833C8.31742 9.13068 7.91627 8.80958 7.45927 8.58911C7.00226 8.36865 6.50126 8.25453 5.99386 8.25534C4.95279 8.25534 4.05603 8.69342 3.29843 9.57471C2.53566 10.4509 2.15944 11.7239 2.15944 13.3885V13.3834ZM2.22644 20.341H0V1.41627H2.39136V8.18319C2.84388 7.59707 3.42726 7.12495 4.09485 6.80458C4.76244 6.48421 5.49573 6.32447 6.23609 6.33813C7.09677 6.33813 7.91622 6.50821 8.68414 6.84836C9.42582 7.16309 10.0801 7.65295 10.591 8.27596C11.0858 8.89441 11.4775 9.63141 11.7609 10.4921C12.0393 11.3631 12.1836 12.2908 12.1836 13.2752C12.1836 15.6201 11.5857 17.4291 10.4003 18.7073C9.86657 19.3149 9.2083 19.8007 8.47021 20.1315C7.73213 20.4623 6.93151 20.6304 6.1227 20.6245C5.35424 20.6483 4.59251 20.4747 3.91034 20.12C3.22818 19.7654 2.6484 19.2417 2.22644 18.599V20.3307V20.341ZM34.0305 16.4293C34.0305 15.8005 33.8604 15.3161 33.5202 14.9605C33.3506 14.7848 33.146 14.6468 32.9196 14.5553C32.6932 14.4639 32.4501 14.421 32.206 14.4296C31.7593 14.4176 31.324 14.5719 30.9846 14.8625C30.5826 15.2181 30.3816 15.7541 30.3816 16.4808C30.3816 17.1405 30.5465 17.6507 30.8867 18.0012C31.134 18.2589 31.433 18.4238 31.7937 18.4908C31.3948 18.6229 30.977 18.689 30.5568 18.6866C30.0044 18.6967 29.4568 18.5824 28.9546 18.3523C28.4523 18.1221 28.0083 17.7819 27.6552 17.357C26.8822 16.4705 26.5008 15.1408 26.5008 13.3628C26.5008 11.5796 26.8873 10.2499 27.6552 9.36856C28.0098 8.94603 28.4544 8.60824 28.9565 8.37994C29.4585 8.15164 30.0054 8.03863 30.5568 8.04919C31.7061 8.04919 32.6699 8.49242 33.4429 9.37372C34.216 10.2602 34.6025 11.5641 34.6025 13.2803C34.6025 14.5636 34.4119 15.6098 34.0356 16.4241L34.0305 16.4293ZM23.0581 16.4241C23.0581 15.8057 22.888 15.3161 22.5478 14.9605C22.3782 14.7848 22.1736 14.6468 21.9472 14.5553C21.7207 14.4639 21.4776 14.421 21.2336 14.4296C20.7869 14.4176 20.3516 14.5719 20.0122 14.8625C19.6102 15.2181 19.4092 15.7541 19.4092 16.4808C19.4092 17.1405 19.5792 17.6507 19.9142 18.0012C20.1616 18.2589 20.4605 18.4238 20.8213 18.4908C20.4224 18.6229 20.0046 18.689 19.5844 18.6866C19.032 18.6967 18.4844 18.5824 17.9822 18.3523C17.4799 18.1221 17.0358 17.7819 16.6828 17.357C15.9097 16.4705 15.5284 15.1408 15.5284 13.3628C15.5284 11.5796 15.9149 10.2499 16.6828 9.36856C17.0378 8.94698 17.4827 8.61016 17.9847 8.38276C18.4868 8.15536 19.0334 8.04315 19.5844 8.05435C20.7337 8.05435 21.6975 8.49757 22.4705 9.37887C23.2436 10.2654 23.6353 11.5693 23.6353 13.2855C23.6353 14.5688 23.4394 15.615 23.0581 16.4293V16.4241ZM35.2107 7.98735C34.0047 6.73498 32.4534 6.11137 30.5568 6.11137C28.8561 6.11137 27.4079 6.62675 26.2225 7.6575C25.7586 8.0595 25.3721 8.53365 25.0577 9.07995C24.8258 8.68311 24.5527 8.31719 24.2331 7.98735C23.0323 6.73498 21.481 6.11137 19.5844 6.11137C17.8836 6.11137 16.4354 6.62675 15.2501 7.6575C13.8276 8.89441 13.1164 10.8013 13.1164 13.3731C13.1164 15.7181 13.7142 17.5167 14.9048 18.764C16.0901 20.006 17.6569 20.6296 19.5844 20.6296C20.7904 20.6296 21.9036 20.3462 22.9189 19.7792C23.8363 19.2639 24.5527 18.5681 25.0783 17.6817C25.3051 18.0785 25.5731 18.4393 25.8772 18.7588C27.0625 20.006 28.6293 20.6296 30.5568 20.6296C31.7628 20.6296 32.876 20.3462 33.8913 19.7792C34.8851 19.233 35.6928 18.402 36.2105 17.393C36.7465 16.3623 37.0145 14.9605 37.0145 13.1669C37.0145 10.9663 36.4115 9.23456 35.2107 7.98219V7.98735ZM38.4215 20.1658V0.947266H40.7252V11.8939L46.178 6.24537H49.1568L43.9567 11.4198L49.6619 20.1658H46.8273L42.3075 13.069L40.7252 14.6409V20.1658H38.4215Z" fill="#81848B"/>
<mask id="mask0_3962_6985" style="mask-type:alpha" maskUnits="userSpaceOnUse" x="119" y="0" width="3" height="3">
<path d="M119.573 0.0400391H121.81V2.82308H119.578L119.573 0.0400391Z" fill="#BEBEBE"/>
</mask>
<g mask="url(#mask0_3962_6985)">
<path fill-rule="evenodd" clip-rule="evenodd" d="M120.506 2.82308V0.364728H119.573V0.0400391H121.81V0.364728H120.882V2.82308H120.506Z" fill="#BEBEBE"/>
</g>
<mask id="mask1_3962_6985" style="mask-type:alpha" maskUnits="userSpaceOnUse" x="122" y="0" width="3" height="3">
<path d="M122.346 0.0400391H125V2.82308H122.346V0.0400391Z" fill="#BEBEBE"/>
</mask>
<g mask="url(#mask1_3962_6985)">
<path fill-rule="evenodd" clip-rule="evenodd" d="M122.346 2.82308V0.0400391H122.897L123.557 2.00878L123.691 2.42109L123.84 1.97271L124.5 0.0400391H124.995V2.82308H124.639V0.493573L123.835 2.82308H123.505L122.696 0.452342V2.82308H122.336H122.346Z" fill="#BEBEBE"/>
</g>
</svg>
