<svg width="12" height="21" viewBox="0 0 12 21" fill="none" xmlns="http://www.w3.org/2000/svg">
<path d="M7.79633 20.5713V11.177H11.3157L11.8534 7.51986H7.79633V5.18843C7.79633 4.59415 7.91853 4.16748 8.16293 3.90843C8.4725 3.57319 9.02648 3.40558 9.82485 3.40558H12V0.137005C11.7556 0.106529 11.3727 0.0760536 10.8513 0.0455761C10.167 0.0151005 9.49084 -0.000137329 8.82281 -0.000137329C7.78004 -0.000137329 6.85947 0.186529 6.0611 0.559862C5.26273 0.933195 4.64358 1.48177 4.20367 2.20558C3.76375 2.92939 3.54379 3.80177 3.54379 4.82272V7.51986H0V11.177H3.54379V20.5713H7.79633Z" fill="white"/>
</svg>
