<svg width="125" height="19" viewBox="0 0 125 19" fill="none" xmlns="http://www.w3.org/2000/svg">
<path d="M0.112305 1.02093H9.51716V2.92071H2.35537V8.7188H8.96698V10.5998H2.35537V18.4999H0.112305V1.02093ZM12.5784 12.6501C12.6348 15.7255 14.5911 16.9998 16.8717 16.9998C18.5035 16.9998 19.491 16.7177 20.3515 16.3556L20.7465 17.9873C19.4314 18.5448 18.013 18.8173 16.5849 18.7867C12.7289 18.7867 10.4106 16.2192 10.4106 12.4385C10.4106 8.65767 12.6536 5.67633 16.3027 5.67633C20.3844 5.67633 21.4895 9.2878 21.4895 11.5873C21.4895 12.0576 21.4331 12.4197 21.4143 12.6501H12.5737H12.5784ZM19.2653 10.9948C19.2841 9.55113 18.6539 7.28926 16.0911 7.28926C13.7916 7.28926 12.7665 9.41946 12.5972 10.9948H19.2653ZM26.6763 18.4999L22.2419 1.03974H24.6166L26.6857 9.8756C27.203 12.0623 27.6732 14.2254 27.9836 15.9183H28.04C28.3221 14.1878 28.8723 12.0999 29.4648 9.85209L31.8019 1.03974H34.1531L36.2834 9.89441C36.7771 11.9635 37.2332 14.0326 37.5013 15.8806H37.5577C37.9198 13.962 38.4136 12.0246 38.9637 9.83798L41.2632 1.02093H43.5627L38.6252 18.4811H36.2645L34.0591 9.38184C33.5698 7.50596 33.1914 5.60288 32.9258 3.6825H32.8694C32.5637 5.40829 32.164 7.11998 31.5198 9.38184L29.0275 18.4811H26.6763V18.4999ZM55.6103 12.1187C55.6103 16.7553 52.3986 18.7867 49.3608 18.7867C45.9609 18.7867 43.3558 16.2945 43.3558 12.3256C43.3558 8.1263 46.0926 5.65752 49.5677 5.65752C53.1792 5.65752 55.6103 8.28148 55.6103 12.1187ZM45.6741 12.2504C45.6741 15.006 47.2494 17.0751 49.4925 17.0751C51.6791 17.0751 53.292 15.0248 53.292 12.2127C53.292 10.0825 52.2293 7.38802 49.5301 7.38802C46.8356 7.38802 45.6741 9.85679 45.6741 12.2504ZM57.228 10.6374H60.3269V12.3303H57.228V10.6374ZM73.7335 0.0898438V15.2505C73.7335 16.3744 73.757 17.6488 73.8322 18.4811H71.782L71.6644 16.2992H71.608C70.9026 17.7052 69.3884 18.7679 67.3335 18.7679C64.2957 18.7679 61.9727 16.2004 61.9727 12.382C61.9586 8.20153 64.5402 5.63871 67.6015 5.63871C69.5201 5.63871 70.8133 6.55098 71.3823 7.5573H71.4387V0.0898438H73.7382H73.7335ZM71.4575 11.0512C71.4575 10.7691 71.4387 10.3929 71.3635 10.1014C71.199 9.35157 70.7826 8.68082 70.1836 8.2008C69.5847 7.72078 68.8393 7.46048 68.0718 7.46325C65.7205 7.46325 64.3098 9.53232 64.3098 12.3068C64.3098 14.8367 65.5465 16.9434 68.02 16.9434C68.8031 16.9391 69.5611 16.6672 70.1684 16.1728C70.7757 15.6784 71.1957 14.9913 71.3588 14.2254C71.4387 13.9244 71.4575 13.6141 71.4575 13.2379V11.0512ZM79.5316 2.42695C79.5504 3.20756 78.9814 3.81417 78.0879 3.81417C77.2885 3.81417 76.7242 3.18875 76.7242 2.42695C76.7242 1.62754 77.3073 1.00212 78.1444 1.00212C78.9814 1.00212 79.5316 1.62754 79.5316 2.42695ZM76.9876 5.96318H79.2682V18.4952H76.9876V5.96318ZM82.4941 9.85679C82.4941 8.37552 82.4753 7.11998 82.4 5.94437H84.3939L84.4738 8.38963H84.5867C85.1557 6.70146 86.5241 5.63871 88.0665 5.63871C88.3298 5.63871 88.4991 5.65752 88.7107 5.71395V7.86296C88.4548 7.80477 88.1925 7.77949 87.9301 7.78772C86.3313 7.78772 85.1745 9.00095 84.8735 10.7127C84.8124 11.0136 84.7795 11.3945 84.7795 11.7754V18.4623H82.5129V9.85679H82.4941ZM91.4428 12.6501C91.504 15.7255 93.4602 16.9998 95.7408 16.9998C97.3726 16.9998 98.3601 16.7177 99.2159 16.3556L99.5921 17.9873C98.7974 18.3494 97.4102 18.7867 95.4164 18.7867C91.5604 18.7867 89.2421 16.2192 89.2421 12.4385C89.2421 8.65767 91.4663 5.67633 95.1295 5.67633C99.2159 5.67633 100.317 9.2878 100.317 11.5873C100.317 12.0576 100.26 12.4197 100.242 12.6501H91.4475H91.4428ZM98.1344 10.9948C98.1532 9.55113 97.5419 7.28926 94.979 7.28926C92.6796 7.28926 91.6544 9.41946 91.4851 10.9948H98.1344ZM104.878 11.7002H104.935C105.24 11.2629 105.678 10.7127 106.058 10.2753L109.74 5.94437H112.496L107.653 11.0936L113.164 18.4811H110.389L106.058 12.4808L104.897 13.7692V18.4811H102.64V0.0945462H104.878V11.7002ZM116.982 2.93952V5.96318H120.25V7.68897H116.982V14.4558C116.982 16.0123 117.42 16.887 118.689 16.887C119.319 16.887 119.677 16.8305 120.02 16.7365L120.133 18.4435C119.7 18.6316 118.995 18.7867 118.12 18.7867C117.057 18.7867 116.202 18.4247 115.67 17.7992C115.026 17.1127 114.777 16.0123 114.777 14.531V7.68897H112.839V5.96318H114.777V3.64488L116.982 2.93952ZM123.575 2.61975C123.775 2.61538 123.974 2.65091 124.16 2.72428C124.346 2.79764 124.516 2.90737 124.659 3.04704C124.802 3.18671 124.916 3.35352 124.994 3.53772C125.072 3.72192 125.112 3.91981 125.113 4.11983C125.115 4.32142 125.076 4.52135 124.999 4.70774C124.922 4.89413 124.809 5.06319 124.665 5.20486C124.522 5.34654 124.352 5.45795 124.164 5.53248C123.977 5.607 123.777 5.64313 123.575 5.63871C123.372 5.64437 123.17 5.60926 122.981 5.53547C122.792 5.46168 122.619 5.35069 122.474 5.20909C122.328 5.06748 122.212 4.89812 122.133 4.71102C122.054 4.52393 122.014 4.3229 122.014 4.11983C122.014 3.30161 122.7 2.61505 123.575 2.61505V2.61975ZM123.556 2.92071C123.401 2.92254 123.248 2.95508 123.105 3.01646C122.963 3.07783 122.834 3.16683 122.726 3.27831C122.618 3.38978 122.533 3.52154 122.476 3.66597C122.419 3.81041 122.392 3.96466 122.395 4.11983C122.391 4.27613 122.419 4.43159 122.476 4.57698C122.534 4.72237 122.62 4.85471 122.729 4.96614C122.839 5.07757 122.97 5.16581 123.115 5.22561C123.259 5.28541 123.414 5.31555 123.57 5.31424C123.726 5.31431 123.879 5.28321 124.023 5.22279C124.166 5.16237 124.295 5.07386 124.403 4.9625C124.512 4.85113 124.597 4.71917 124.653 4.57443C124.709 4.42969 124.736 4.27511 124.732 4.11983C124.713 3.47089 124.238 2.92071 123.556 2.92071ZM123.326 4.91454H122.987V3.41446C123.119 3.39565 123.307 3.35803 123.551 3.35803C123.838 3.35803 123.975 3.39565 124.088 3.47089C124.163 3.52732 124.238 3.65899 124.238 3.79536C124.238 3.96465 124.106 4.10102 123.937 4.15745V4.17626C124.088 4.21388 124.163 4.34554 124.219 4.53834C124.257 4.76406 124.294 4.85811 124.332 4.89573H123.956C123.918 4.8393 123.876 4.70763 123.838 4.53834C123.82 4.36435 123.725 4.28912 123.537 4.28912H123.363V4.91454H123.326ZM123.326 4.0634H123.5C123.688 4.0634 123.838 4.00227 123.838 3.83298C123.838 3.70131 123.744 3.60726 123.519 3.60726C123.425 3.60726 123.363 3.62607 123.33 3.62607V4.0634H123.326Z" fill="#80848B"/>
</svg>
