<svg width="17" height="16" viewBox="0 0 17 16" fill="none" xmlns="http://www.w3.org/2000/svg">
<g clip-path="url(#clip0_3775_3020)">
<path d="M12.167 0.611328C11.4163 0.623005 10.6819 0.832564 10.0381 1.21884C9.39434 1.60512 8.86387 2.15444 8.5003 2.81133C8.13672 2.15444 7.60625 1.60512 6.96246 1.21884C6.31866 0.832564 5.58433 0.623005 4.83363 0.611328C3.63692 0.663322 2.50944 1.18683 1.69749 2.06748C0.885537 2.94814 0.455131 4.11435 0.500298 5.31133C0.500298 9.828 7.8043 15.0447 8.11496 15.266L8.5003 15.5387L8.88563 15.266C9.1963 15.046 16.5003 9.828 16.5003 5.31133C16.5455 4.11435 16.1151 2.94814 15.3031 2.06748C14.4912 1.18683 13.3637 0.663322 12.167 0.611328ZM8.5003 13.8973C6.33163 12.2773 1.83363 8.29733 1.83363 5.31133C1.78806 4.46781 2.07788 3.64048 2.63987 3.00979C3.20187 2.37911 3.99045 1.99623 4.83363 1.94466C5.67681 1.99623 6.46539 2.37911 7.02739 3.00979C7.58939 3.64048 7.8792 4.46781 7.83363 5.31133H9.16696C9.12139 4.46781 9.41121 3.64048 9.97321 3.00979C10.5352 2.37911 11.3238 1.99623 12.167 1.94466C13.0101 1.99623 13.7987 2.37911 14.3607 3.00979C14.9227 3.64048 15.2125 4.46781 15.167 5.31133C15.167 8.29866 10.669 12.2773 8.5003 13.8973Z" fill="white"/>
</g>
<defs>
<clipPath id="clip0_3775_3020">
<rect width="16" height="16" fill="white" transform="translate(0.5)"/>
</clipPath>
</defs>
</svg>
