<svg width="18" height="19" viewBox="0 0 18 19" fill="none" xmlns="http://www.w3.org/2000/svg">
<path d="M11.88 9.28558C11.88 9.83722 11.718 10.3709 11.394 10.8865C11.094 11.3542 10.662 11.708 10.098 11.9479C9.57 12.1637 9.015 12.2177 8.433 12.1098C7.851 12.0018 7.356 11.744 6.948 11.3363C6.54 10.9285 6.279 10.4278 6.165 9.83422C6.051 9.2406 6.108 8.69196 6.336 8.18828C6.564 7.64863 6.921 7.21691 7.407 6.89312C7.893 6.56932 8.424 6.40743 9 6.40743C9.384 6.40743 9.753 6.48238 10.107 6.63228C10.461 6.78219 10.77 6.98905 11.034 7.25288C11.298 7.51671 11.505 7.82552 11.655 8.17929C11.805 8.53306 11.88 8.90182 11.88 9.28558ZM18 5.32812V13.243C18 13.9026 17.871 14.5412 17.613 15.1588C17.355 15.7764 16.989 16.322 16.515 16.7957C16.041 17.2694 15.495 17.6352 14.877 17.893C14.259 18.1509 13.62 18.2798 12.96 18.2798H5.04C4.38 18.2798 3.741 18.1509 3.123 17.893C2.505 17.6352 1.959 17.2694 1.485 16.7957C1.011 16.322 0.645 15.7764 0.387 15.1588C0.129 14.5412 0 13.9026 0 13.243V5.32812C0 4.66855 0.129 4.02996 0.387 3.41236C0.645 2.79475 1.011 2.24911 1.485 1.77541C1.959 1.30172 2.505 0.935951 3.123 0.678118C3.741 0.420282 4.38 0.291367 5.04 0.291367H12.96C13.62 0.291367 14.259 0.420282 14.877 0.678118C15.495 0.935951 16.041 1.30172 16.515 1.77541C16.989 2.24911 17.355 2.79475 17.613 3.41236C17.871 4.02996 18 4.66855 18 5.32812ZM13.302 9.28558C13.302 8.42213 13.062 7.61865 12.582 6.87513C12.354 6.52735 12.072 6.21855 11.736 5.94872C11.4 5.6789 11.04 5.46004 10.656 5.29215C9.84 4.95636 9.006 4.87242 8.154 5.04031C7.278 5.23219 6.546 5.62793 5.958 6.22754C5.334 6.85114 4.938 7.58867 4.77 8.44012C4.686 8.84786 4.665 9.26759 4.707 9.69931C4.749 10.131 4.851 10.5418 5.013 10.9315C5.175 11.3213 5.391 11.681 5.661 12.0108C5.931 12.3406 6.246 12.6254 6.606 12.8653C7.35 13.345 8.154 13.5848 9.018 13.5848C9.582 13.5848 10.128 13.4739 10.656 13.252C11.184 13.0302 11.652 12.7154 12.06 12.3076C12.468 11.8999 12.78 11.4352 12.996 10.9135C13.212 10.3919 13.326 9.84322 13.338 9.26759L13.302 9.28558ZM14.742 4.60859C14.742 4.38073 14.682 4.18286 14.562 4.01497C14.43 3.82309 14.268 3.68818 14.076 3.61023C13.884 3.53228 13.68 3.51129 13.464 3.54727C13.248 3.58325 13.059 3.68218 12.897 3.84408C12.735 4.00597 12.636 4.19185 12.6 4.40172C12.564 4.61158 12.582 4.81845 12.654 5.02232C12.714 5.19021 12.846 5.35211 13.05 5.50801C13.242 5.63992 13.44 5.70588 13.644 5.70588C13.92 5.70588 14.178 5.59795 14.418 5.38209C14.622 5.17822 14.724 4.92638 14.724 4.62658L14.742 4.60859Z" fill="white"/>
</svg>
