<svg width="18" height="18" viewBox="0 0 18 18" fill="none" xmlns="http://www.w3.org/2000/svg">
<path d="M0 2.71984C0 2.13355 0.203333 1.65386 0.61 1.28077C1.01667 0.907673 1.54333 0.721127 2.19 0.721127C2.83667 0.721127 3.35667 0.907673 3.75 1.28077C4.14333 1.65386 4.34 2.14688 4.34 2.75981C4.34 3.31945 4.14667 3.77916 3.76 4.13893C3.33333 4.52534 2.8 4.71855 2.16 4.71855H2.14C1.5 4.71855 0.983333 4.52534 0.59 4.13893C0.196667 3.75251 0 3.27948 0 2.71984ZM0.22 17.8501V6.29754H4.08V17.8501H0.22ZM6.22 17.8501H10.08V11.3943C10.08 10.9679 10.1267 10.6547 10.22 10.4549C10.3933 10.0418 10.64 9.71534 10.96 9.47549C11.28 9.19567 11.6933 9.05576 12.2 9.05576C13.4933 9.05576 14.14 9.92853 14.14 11.6741V17.8501H18V11.2144C18 9.49548 17.5967 8.19965 16.79 7.32687C15.9833 6.4541 14.9133 6.01772 13.58 6.01772C12.0867 6.01772 10.92 6.6573 10.08 7.93648V7.97645H10.06L10.08 7.93648V6.29754H6.22C6.24667 6.77723 6.26 7.92316 6.26 9.73532C6.26 10.7214 6.25333 12.6601 6.24 15.5516L6.22 17.8501Z" fill="white"/>
</svg>
