<svg width="14" height="18" viewBox="0 0 14 18" fill="none" xmlns="http://www.w3.org/2000/svg">
<path d="M7 0.25C5.17727 0.25207 3.42979 0.97706 2.14092 2.26592C0.85206 3.55479 0.12707 5.30227 0.125 7.125C0.125 13.0078 6.375 17.4508 6.64141 17.6367C6.74649 17.7103 6.87169 17.7498 7 17.7498C7.1283 17.7498 7.2535 17.7103 7.3586 17.6367C7.625 17.4508 13.875 13.0078 13.875 7.125C13.8729 5.30227 13.1479 3.55479 11.8591 2.26592C10.5702 0.97706 8.8227 0.25207 7 0.25ZM7 4.625C7.4945 4.625 7.9778 4.77162 8.3889 5.04633C8.8 5.32103 9.1205 5.71148 9.3097 6.16829C9.4989 6.62511 9.5484 7.12777 9.452 7.61273C9.3555 8.09768 9.1174 8.54314 8.7678 8.89277C8.4181 9.2424 7.9727 9.4805 7.4877 9.577C7.0028 9.6734 6.50011 9.6239 6.04329 9.4347C5.58648 9.2455 5.19603 8.92505 4.92133 8.51393C4.64662 8.1028 4.5 7.61945 4.5 7.125C4.5 6.46196 4.76339 5.82607 5.23223 5.35723C5.70107 4.88839 6.33696 4.625 7 4.625Z" fill="#286BB6"/>
</svg>
