<svg width="215" height="40" viewBox="0 0 215 40" fill="none" xmlns="http://www.w3.org/2000/svg">
<g clip-path="url(#clip0_3775_3837)">
<path d="M22.4697 0L28.7499 32.8465L45.1528 38.8781L22.4697 0Z" fill="white"/>
<path d="M0.890625 39.91L45.1537 39.9095L14.0192 28.4595L0.890625 39.91Z" fill="white"/>
<path d="M0 39.3783L24.8599 17.6968L21.7258 1.30469L0 39.3783Z" fill="white"/>
<path d="M214.958 12.4897H212.105V33.5321H214.958V12.4897Z" fill="white"/>
<path d="M212.105 5.99902C213.681 5.99902 214.958 7.29126 214.958 8.88561V9.46415H212.105V5.99902Z" fill="white"/>
<path d="M67.5156 6.77514C68.0368 7.30256 68.2836 7.94093 68.2836 8.69026H59.2045V33.5306H56.3244V8.69026H49.8784C49.1379 8.69026 48.4796 8.41255 47.9858 7.88534C47.4645 7.33014 47.2178 6.71955 47.2178 5.97021H65.5954C66.3634 5.97021 66.9943 6.24772 67.5156 6.77514Z" fill="white"/>
<path d="M137.131 6.77615C137.899 6.24873 138.777 5.99902 139.709 5.99902L127.119 33.5594L114.557 5.99902C115.516 5.99902 116.394 6.27653 117.19 6.83173C117.985 7.38674 118.533 8.10848 118.89 8.99656L127.119 27.0093L135.457 8.91319C135.786 7.99731 136.363 7.30357 137.131 6.77615Z" fill="white"/>
<path d="M160.423 33.5304H143.252V5.97021H160.312V8.66226H146.077V18.1821H157.35C157.35 18.9319 157.104 19.542 156.582 20.0694C156.089 20.5966 155.458 20.8467 154.744 20.8467H146.105V30.8104H160.45L160.423 33.5304Z" fill="white"/>
<path d="M167.914 30.8106V8.85658C167.914 8.05167 167.639 7.38571 167.064 6.83051C166.514 6.2755 165.83 5.97021 165.062 5.97021V33.5304H177.816L179.16 30.8106H167.914Z" fill="white"/>
<path d="M195.453 6.02344L180.01 37.4142H183.136L195.425 12.3238L201.076 23.8699H195.699C194.767 23.8975 194.026 24.1474 193.477 24.6193C192.929 25.0911 192.518 25.5907 192.243 26.1457L192.079 26.5066H202.392L205.848 33.5563H208.976L195.453 6.02344Z" fill="white"/>
<path d="M74.6985 33.5313V8.71885H81.0896C83.5032 8.71885 85.2588 9.21826 86.3285 10.2451C87.3982 11.2721 87.9467 12.5765 87.9467 14.1031C87.9467 15.6296 87.3708 16.9617 86.2188 18.0721C85.0668 19.1821 83.3387 19.7371 81.0621 19.7371H80.6232C80.2665 19.7371 79.9924 19.8761 79.7728 20.098C79.5535 20.3477 79.4437 20.5974 79.4437 20.9307C79.4437 21.1526 79.4985 21.3749 79.6632 21.5967L80.349 22.5404L86.2188 30.7003C86.8498 31.5884 87.6725 32.2823 88.6326 32.7819C89.4526 33.2085 90.3529 33.4517 91.2817 33.5313H91.7395L83.3662 21.8744C85.5331 21.5969 87.316 20.792 88.7148 19.432C90.1411 18.0723 90.827 16.268 90.827 13.992C90.827 12.5213 90.4703 11.161 89.7847 9.96759C89.0989 8.77423 88.0292 7.80298 86.6028 7.08144C85.1764 6.35968 83.3937 5.99902 81.2541 5.99902H71.8457V33.5313H74.6985Z" fill="white"/>
<path d="M114.034 23.902H108.657C107.725 23.9298 106.984 24.1795 106.436 24.6513C105.887 25.1233 105.475 25.6228 105.201 26.178L105.037 26.5385H115.35L118.779 33.5327H121.92L108.438 6.05566L94.9287 33.5327H98.028L108.383 12.356L114.034 23.902Z" fill="white"/>
<path d="M214.958 9.46143H212.105V9.96259H214.958V9.46143Z" fill="white"/>
</g>
<defs>
<clipPath id="clip0_3775_3837">
<rect width="215" height="40" fill="white"/>
</clipPath>
</defs>
</svg>
