<svg width="18" height="15" viewBox="0 0 18 15" fill="none" xmlns="http://www.w3.org/2000/svg">
<path d="M12.02 -0.00955105H12.88L13.18 0.0504112C13.3667 0.0903854 13.5533 0.143684 13.74 0.210308C13.9267 0.276932 14.0867 0.350218 14.22 0.430166L14.66 0.689999C14.82 0.823247 14.9333 0.923182 15 0.989806C15.0933 1.08308 15.2467 1.10307 15.46 1.04977C15.7 1.00979 15.9267 0.94317 16.14 0.849896C16.3 0.796597 16.54 0.703323 16.86 0.570076L17.38 0.310244L17.4 0.290257H17.44V0.270269H17.46V0.250282H17.5V0.270269L17.48 0.290257V0.350218L17.44 0.410179V0.47014L17.28 0.789934C17.2 0.936507 17.0767 1.12305 16.91 1.34957C16.7433 1.57609 16.6133 1.72933 16.52 1.80928L16.28 2.00915C16.2667 2.02247 16.24 2.04912 16.2 2.0891L16.16 2.12907L16.04 2.20902H16.02L16 2.22901H15.98V2.24899H15.96V2.26898H16.04L16.5 2.16905C16.78 2.11575 17.0667 2.0358 17.36 1.9292L17.8 1.78929L17.84 1.7693H17.88V1.74932H17.9L17.92 1.72933H18V1.74932L17.98 1.7693H17.96V1.78929L17.94 1.80928V1.82927H17.92C17.92 1.84259 17.8533 1.93586 17.72 2.10909L17.5 2.38891C17.4867 2.38891 17.48 2.39557 17.48 2.40889L17.46 2.42888C17.4467 2.45553 17.3267 2.58211 17.1 2.80863C16.9133 2.99518 16.7133 3.17507 16.5 3.34829C16.2867 3.52151 16.18 3.72804 16.18 3.96789C16.18 4.11446 16.1667 4.36763 16.14 4.7274V4.78736C16.1267 5.08051 16.0867 5.40696 16.02 5.76673C15.9667 6.05987 15.8733 6.45296 15.74 6.94597C15.66 7.25244 15.5133 7.68549 15.3 8.24513C15.18 8.53828 14.9933 8.91803 14.74 9.3844C14.58 9.66422 14.4 9.9507 14.2 10.2438C14.1067 10.3638 13.9667 10.5437 13.78 10.7835L13.7 10.8834C13.5933 11.03 13.38 11.2632 13.06 11.583L12.64 12.0027C12.56 12.0827 12.4533 12.1693 12.32 12.2625C12.1467 12.4224 11.9467 12.5823 11.72 12.7422L11.46 12.9021C11.3133 13.0087 11.2067 13.082 11.14 13.122C10.8867 13.2552 10.6667 13.3685 10.48 13.4618C10.32 13.555 10.0533 13.6816 9.68 13.8415C9.4 13.9481 9.08667 14.0547 8.74 14.1613C8.51333 14.2279 8.2 14.3012 7.8 14.3812C7.57333 14.4212 7.23333 14.4678 6.78 14.5211L6.2 14.5811H5.14L5 14.5611H4.78L3.9 14.4212C3.55333 14.3679 3.32 14.3279 3.2 14.3012C3.02667 14.2613 2.69333 14.1613 2.2 14.0014C1.8 13.8549 1.42667 13.7016 1.08 13.5417L0.22 13.102L0.08 13.0021H0.06V12.9821H0.04V12.9621H0.02V12.9421H0V12.9221H0.1C0.126667 12.9354 0.193333 12.9421 0.3 12.9421L0.5 12.9621H1.2C1.52 12.9354 1.76667 12.9088 1.94 12.8821C2.24667 12.8288 2.54667 12.7622 2.84 12.6823C3.09333 12.6157 3.41333 12.5091 3.8 12.3625C4.08 12.2426 4.28333 12.1493 4.41 12.0827C4.53667 12.016 4.72 11.8961 4.96 11.7229L5.36 11.4631H5.38V11.4431H5.4V11.4231L5.42 11.4031L5.3 11.3831H5.04L4.66 11.3032C4.47333 11.2632 4.28667 11.1966 4.1 11.1033C3.88667 11.01 3.69333 10.9101 3.52 10.8035C3.32 10.6836 3.18 10.5836 3.1 10.5037L2.78 10.1839C2.66 10.0373 2.54667 9.88741 2.44 9.73418C2.33333 9.58094 2.24 9.40439 2.16 9.20452L2.02 8.90471V8.88472L2 8.86474V8.82476L2.02 8.84475L2.22 8.86474C2.3 8.87806 2.48667 8.88472 2.78 8.88472C3.00667 8.88472 3.18667 8.8714 3.32 8.84475C3.37333 8.83142 3.43333 8.82476 3.5 8.82476L3.52 8.80477H3.56L3.6 8.78479H3.62L3.58 8.7648H3.56L3.52 8.74481H3.46C3.44667 8.73149 3.42667 8.72483 3.4 8.72483L3.34 8.70484L2.9 8.52495C2.67333 8.43168 2.48667 8.33175 2.34 8.22515C2.15333 8.0919 2.02 7.98863 1.94 7.91535C1.86 7.84206 1.74 7.71214 1.58 7.5256L1.52 7.46564C1.37333 7.29241 1.24 7.07922 1.12 6.82605C0.973333 6.50625 0.88 6.27307 0.84 6.1265C0.786667 5.9133 0.746667 5.68678 0.72 5.44694L0.7 5.10715H0.74V5.12714H0.76L0.78 5.14713H0.8L1.04 5.26705C1.22667 5.347 1.44 5.40696 1.68 5.44694C1.94667 5.51356 2.09333 5.54687 2.12 5.54687H2.34H2.32V5.52688H2.3L2.26 5.48691H2.24L2.08 5.36699L1.8 5.10715L1.7 5.00722C1.62 4.90062 1.56 4.82067 1.52 4.76737C1.4 4.6208 1.31 4.49088 1.25 4.37762C1.19 4.26436 1.11333 4.10114 1.02 3.88794C0.926667 3.67474 0.86 3.45489 0.82 3.22836C0.793333 3.10844 0.766667 2.9219 0.74 2.66873V2.60876C0.74 2.35559 0.746667 2.18237 0.76 2.0891C0.773333 1.99582 0.806667 1.82927 0.86 1.58942C0.9 1.4162 0.973333 1.22299 1.08 1.00979L1.22 0.709986V0.650024H1.24H1.26V0.670012H1.28V0.689999L1.52 0.949832C1.61333 1.05643 1.78667 1.23631 2.04 1.48948C2.24 1.68936 2.35 1.79262 2.37 1.79928C2.39 1.80595 2.40667 1.8226 2.42 1.84925L2.46 1.88923C2.47333 1.90255 2.51333 1.94253 2.58 2.00915L2.78 2.16905C2.9 2.27564 3.14 2.44887 3.5 2.68871C3.83333 2.91523 4.16 3.1151 4.48 3.28833C4.8 3.46155 5.19333 3.63477 5.66 3.80799C6.03333 3.95456 6.32667 4.06116 6.54 4.12779C6.72667 4.16776 7.01333 4.22772 7.4 4.30767C7.74667 4.37429 8.05333 4.42093 8.32 4.44758L8.74 4.48755H8.84L8.8 4.24771C8.78667 4.15444 8.78 3.96123 8.78 3.66808C8.78 3.42824 8.8 3.20838 8.84 3.00851C8.85333 2.83528 8.90667 2.62209 9 2.36892C9.08 2.16905 9.15333 2.00249 9.22 1.86924L9.52 1.42952C9.65333 1.2563 9.81 1.08641 9.99 0.919851C10.17 0.753291 10.38 0.603388 10.62 0.47014C10.94 0.310244 11.1667 0.210308 11.3 0.170334C11.4733 0.10371 11.6467 0.0570736 11.82 0.0304241L12.02 -0.00955105Z" fill="white"/>
</svg>
